<?xml version="1.0" encoding="UTF-8" standalone="no"?>
<!-- Created with Inkscape (http://www.inkscape.org/) -->

<svg
   xmlns:dc="http://purl.org/dc/elements/1.1/"
   xmlns:cc="http://creativecommons.org/ns#"
   xmlns:rdf="http://www.w3.org/1999/02/22-rdf-syntax-ns#"
   xmlns:svg="http://www.w3.org/2000/svg"
   xmlns="http://www.w3.org/2000/svg"
   version="1.1"
   width="531.49603"
   height="780.05902"
   id="svg2">
  <defs
     id="defs4" />
  <metadata
     id="metadata7">
    <rdf:RDF>
      <cc:Work
         rdf:about="">
        <dc:format>image/svg+xml</dc:format>
        <dc:type
           rdf:resource="http://purl.org/dc/dcmitype/StillImage" />
        <dc:title></dc:title>
      </cc:Work>
    </rdf:RDF>
  </metadata>
  <g
     transform="translate(0,-1324.6654)"
     id="layer1">
    <path
       d="m 267.80749,1331.3422 c -160.08611,-0.6859 -295.405136,153.0361 -254.564723,317.323 5.858746,23.5674 62.190526,131.3251 129.319933,247.2293 65.45064,113.0057 121.4269,203.886 124.42976,202.1303 16.30605,-9.5341 242.67433,-413.8447 251.57623,-449.3596 32.35649,-129.0883 -50.02783,-269.214 -180.93926,-307.2707 -23.43331,-6.8123 -46.95252,-9.9543 -69.82194,-10.0523 z m -121.71291,173.8755 49.17421,0 c 7.12933,15.7215 15.80373,40.6593 29.61319,82.8626 19.16627,58.5744 37.83928,106.4987 41.29542,106.4987 6.52064,0 41.4043,-93.8319 63.02993,-169.5287 2.3038,-8.064 4.22301,-14.3557 6.24861,-19.8326 l 50.53262,0 c -6.15103,30.4664 -29.18042,96.9664 -56.23788,161.1069 l -23.09286,54.336 -41.02378,0 -41.02377,0 -19.83268,-45.6425 c -24.18297,-56.0961 -51.48444,-136.1846 -58.68301,-169.8004 z"
       id="path2996"
       style="fill:#050505;stroke:#ffffff;stroke-width:8.69377995;stroke-opacity:1" />
  </g>
</svg>
