<?xml version="1.0" encoding="UTF-8" standalone="no"?>
<!-- Created with Inkscape (http://www.inkscape.org/) -->
<svg xmlns:dc="http://purl.org/dc/elements/1.1/" xmlns:cc="http://creativecommons.org/ns#" xmlns:rdf="http://www.w3.org/1999/02/22-rdf-syntax-ns#" xmlns:svg="http://www.w3.org/2000/svg" xmlns="http://www.w3.org/2000/svg" xmlns:sodipodi="http://sodipodi.sourceforge.net/DTD/sodipodi-0.dtd" xmlns:inkscape="http://www.inkscape.org/namespaces/inkscape" height="46" width="83" viewBox="0 0 83.000001 46.000001" id="svg3268" version="1.1" inkscape:version="0.91 r13725" sodipodi:docname="logo.svg">
  <defs id="defs3274"/>
  <sodipodi:namedview pagecolor="#ffffff" bordercolor="#666666" borderopacity="1" objecttolerance="10" gridtolerance="10" guidetolerance="10" inkscape:pageopacity="0" inkscape:pageshadow="2" inkscape:window-width="1600" inkscape:window-height="836" id="namedview3272" showgrid="false" units="px" inkscape:zoom="5.0743654" inkscape:cx="41.093262" inkscape:cy="40.851118" inkscape:window-x="0" inkscape:window-y="27" inkscape:window-maximized="1" inkscape:current-layer="svg3268"/>
  <metadata id="metadata3270">
    <rdf:RDF>
      <cc:Work rdf:about="">
        <dc:format>image/svg+xml</dc:format>
        <dc:type rdf:resource="http://purl.org/dc/dcmitype/StillImage"/>
        <dc:title/>
      </cc:Work>
    </rdf:RDF>
  </metadata>
  <g style="font-style:normal;font-weight:normal;font-size:14.19992638px;line-height:125%;font-family:sans-serif;text-align:center;letter-spacing:0px;word-spacing:0px;text-anchor:middle;fill:#ffffff;fill-opacity:1;stroke:#ffffff;stroke-width:2.9000001;stroke-linecap:butt;stroke-linejoin:miter;stroke-miterlimit:4;stroke-dasharray:none;stroke-opacity:1" id="text3363-3-5" transform="matrix(1.0953693,0,0,1.0953693,-632.33794,-484.98063)">
    <path d="m 590.95708,464.82453 1.02882,4.54393 0.0429,0 1.11455,-4.62967 7.24457,-20.53343 3.55798,0 -11.35983,30.47864 -1.58609,0 -11.57417,-30.47864 3.90093,0 7.63037,20.61917 z" style="font-style:normal;font-variant:normal;font-weight:normal;font-stretch:normal;font-size:42.86728668px;font-family:'PT Sans';-inkscape-font-specification:'PT Sans';letter-spacing:-3px;fill:#ffffff;fill-opacity:1;stroke:#ffffff;stroke-width:2.9000001;stroke-linejoin:miter;stroke-miterlimit:4;stroke-dasharray:none;stroke-opacity:1" id="path3333" inkscape:connector-curvature="0"/>
    <path d="m 618.08274,475.19841 q 0,4.15813 -2.2291,6.13002 -2.18623,1.9719 -6.51583,1.9719 -2.57203,0 -4.15812,-0.34294 -1.54323,-0.30007 -2.65778,-0.81448 l 0.90022,-2.91497 q 0.98595,0.3858 2.18623,0.72874 1.20028,0.34294 3.12931,0.34294 1.80043,0 2.91498,-0.34294 1.15741,-0.30007 1.84329,-1.07168 0.68588,-0.72875 0.94308,-1.92903 0.2572,-1.15742 0.2572,-2.78637 l 0,-2.05763 -0.17146,0 q -0.85735,1.24315 -2.18624,1.92902 -1.32888,0.64301 -3.47225,0.64301 -4.32959,0 -6.38722,-2.70064 -2.01476,-2.70063 -2.01476,-8.40198 0,-5.48702 2.6149,-8.31626 2.6149,-2.87211 7.71611,-2.87211 2.44344,0 4.15813,0.38581 1.75756,0.38581 3.12931,0.90021 l 0,21.51938 z m -8.61632,-3.51512 q 2.18623,0 3.42938,-1.07168 1.24315,-1.11455 1.75756,-3.42938 l 0,-10.97403 q -1.71469,-0.81448 -4.37247,-0.81448 -2.91497,0 -4.5868,1.9719 -1.67182,1.97189 -1.67182,6.17289 0,1.80043 0.30007,3.30078 0.30007,1.50036 0.94308,2.57204 0.64301,1.07168 1.67183,1.67182 1.02881,0.60014 2.52917,0.60014 z" style="font-style:normal;font-variant:normal;font-weight:normal;font-stretch:normal;font-size:42.86728668px;font-family:'PT Sans';-inkscape-font-specification:'PT Sans';letter-spacing:-3px;fill:#ffffff;fill-opacity:1;stroke:#ffffff;stroke-width:2.9000001;stroke-linejoin:miter;stroke-miterlimit:4;stroke-dasharray:none;stroke-opacity:1" id="path3335" inkscape:connector-curvature="0"/>
    <path d="m 637.33555,472.49777 q -1.28602,1.02882 -3.25791,1.62896 -1.92903,0.60014 -4.11526,0.60014 -2.44344,0 -4.24386,-0.77161 -1.80043,-0.81448 -2.95785,-2.27197 -1.15741,-1.50035 -1.71469,-3.55798 -0.55727,-2.05763 -0.55727,-4.62967 0,-5.48701 2.44343,-8.35912 2.44344,-2.87211 6.98737,-2.87211 1.45749,0 2.91498,0.34294 1.45749,0.30007 2.6149,1.20028 1.15742,0.90022 1.88616,2.57204 0.72875,1.62896 0.72875,4.3296 0,1.41462 -0.25721,3.12931 l -13.7604,0 q 0,1.88616 0.38581,3.34365 0.3858,1.45749 1.20028,2.4863 0.81448,0.98595 2.1005,1.54322 1.32889,0.51441 3.21505,0.51441 1.45748,0 2.91497,-0.51441 1.45749,-0.5144 2.18623,-1.20028 l 1.28602,2.4863 z m -7.37317,-17.23265 q -2.52917,0 -4.07239,1.32889 -1.50036,1.32888 -1.80043,4.54393 l 10.63109,0 q 0,-3.25791 -1.24315,-4.54393 -1.24315,-1.32889 -3.51512,-1.32889 z" style="font-style:normal;font-variant:normal;font-weight:normal;font-stretch:normal;font-size:42.86728668px;font-family:'PT Sans';-inkscape-font-specification:'PT Sans';letter-spacing:-3px;fill:#ffffff;fill-opacity:1;stroke:#ffffff;stroke-width:2.9000001;stroke-linejoin:miter;stroke-miterlimit:4;stroke-dasharray:none;stroke-opacity:1" id="path3337" inkscape:connector-curvature="0"/>
    <path d="m 650.57421,456.0796 q -1.28602,-0.42867 -2.44343,-0.42867 -1.8433,0 -2.91498,1.02881 -1.07168,0.98595 -1.32888,2.52917 l 0,15.00355 -3.42939,0 0,-21.43364 2.40057,0 0.64301,2.6149 0.17147,0 q 0.81448,-1.45748 1.92903,-2.22909 1.15741,-0.81448 2.91497,-0.81448 1.24315,0 2.78638,0.42867 l -0.72875,3.30078 z" style="font-style:normal;font-variant:normal;font-weight:normal;font-stretch:normal;font-size:42.86728668px;font-family:'PT Sans';-inkscape-font-specification:'PT Sans';letter-spacing:-3px;fill:#ffffff;fill-opacity:1;stroke:#ffffff;stroke-width:2.9000001;stroke-linejoin:miter;stroke-miterlimit:4;stroke-dasharray:none;stroke-opacity:1" id="path3339" inkscape:connector-curvature="0"/>
  </g>
</svg>