<?xml version="1.0" encoding="UTF-8" standalone="no"?>
<svg
   xmlns:dc="http://purl.org/dc/elements/1.1/"
   xmlns:cc="http://creativecommons.org/ns#"
   xmlns:rdf="http://www.w3.org/1999/02/22-rdf-syntax-ns#"
   xmlns:svg="http://www.w3.org/2000/svg"
   xmlns="http://www.w3.org/2000/svg"
   version="1.1"
   id="svg3290"
   viewBox="0 0 30 34.000001"
   width="30"
   height="34">
  <defs
     id="defs3296" />
  <metadata
     id="metadata3292">
    <rdf:RDF>
      <cc:Work
         rdf:about="">
        <dc:format>image/svg+xml</dc:format>
        <dc:type
           rdf:resource="http://purl.org/dc/dcmitype/StillImage" />
        <dc:title></dc:title>
      </cc:Work>
    </rdf:RDF>
  </metadata>
  <g
     style="opacity:1;fill:#6bffb8;fill-opacity:1"
     id="icons"
     transform="matrix(1.3272196,0,0,1.3272196,-0.9266352,1.0733648)">
    <path
       style="fill:#6bffb8;fill-opacity:1"
       id="settings"
       d="M 22.2,14.4 21,13.7 C 19.7,12.9 19.7,11 21,10.2 l 1.2,-0.7 c 1,-0.6 1.3,-1.8 0.7,-2.7 l -1,-1.7 C 21.3,4.1 20.1,3.8 19.2,4.4 L 18,5.1 C 16.7,5.9 15,4.9 15,3.4 L 15,2 C 15,0.9 14.1,0 13,0 L 11,0 C 9.9,0 9,0.9 9,2 L 9,3.3 C 9,4.8 7.3,5.8 6,5 L 4.8,4.4 C 3.8,3.8 2.6,4.2 2.1,5.1 l -1,1.7 C 0.6,7.8 0.9,9 1.8,9.6 L 3,10.3 C 4.3,11 4.3,13 3,13.7 l -1.2,0.7 c -1,0.6 -1.3,1.8 -0.7,2.7 l 1,1.7 c 0.6,1 1.8,1.3 2.7,0.7 L 6,18.9 c 1.3,-0.8 3,0.2 3,1.7 L 9,22 c 0,1.1 0.9,2 2,2 l 2,0 c 1.1,0 2,-0.9 2,-2 l 0,-1.3 c 0,-1.5 1.7,-2.5 3,-1.7 l 1.2,0.7 c 1,0.6 2.2,0.2 2.7,-0.7 l 1,-1.7 C 23.4,16.2 23.1,15 22.2,14.4 Z M 12,16 C 9.8,16 8,14.2 8,12 8,9.8 9.8,8 12,8 c 2.2,0 4,1.8 4,4 0,2.2 -1.8,4 -4,4 z" />
  </g>
</svg>
