<?xml version="1.0" encoding="UTF-8" standalone="no"?>
<svg
   xmlns:dc="http://purl.org/dc/elements/1.1/"
   xmlns:cc="http://creativecommons.org/ns#"
   xmlns:rdf="http://www.w3.org/1999/02/22-rdf-syntax-ns#"
   xmlns:svg="http://www.w3.org/2000/svg"
   xmlns="http://www.w3.org/2000/svg"
   version="1.1"
   id="svg3268"
   viewBox="0 0 60.000001 60.000001"
   width="60"
   height="60">
  <defs
     id="defs3274" />
  <metadata
     id="metadata3270">
    <rdf:RDF>
      <cc:Work
         rdf:about="">
        <dc:format>image/svg+xml</dc:format>
        <dc:type
           rdf:resource="http://purl.org/dc/dcmitype/StillImage" />
        <dc:title></dc:title>
      </cc:Work>
    </rdf:RDF>
  </metadata>
  <circle
     r="30"
     cy="30"
     cx="30"
     id="path3455"
     style="color:#000000;clip-rule:nonzero;display:inline;overflow:visible;visibility:visible;opacity:1;isolation:auto;mix-blend-mode:normal;color-interpolation:sRGB;color-interpolation-filters:linearRGB;solid-color:#000000;solid-opacity:1;fill:#6bffb8;fill-opacity:1;fill-rule:nonzero;stroke:none;stroke-width:6.23699999;stroke-linecap:round;stroke-linejoin:miter;stroke-miterlimit:4;stroke-dasharray:none;stroke-dashoffset:0;stroke-opacity:1;color-rendering:auto;image-rendering:auto;shape-rendering:auto;text-rendering:auto;enable-background:accumulate" />
  <path
     id="path3399"
     d="m 29.172955,7.06255 c -1.26882,0 -2.29108,1.02215 -2.29108,2.29102 l 0,5.74413 c 0,0.10037 0.0168,0.19609 0.0297,0.29298 -5.74532,1.22237 -10.2971,5.77409 -11.51952,11.51953 -0.098,-0.0126 -0.19382,-0.0294 -0.29494,-0.0294 l -5.74215,0 c -1.26882,0 -2.29108,1.02216 -2.29108,2.29102 l 0,1.65625 c 0,1.26886 1.02226,2.29102 2.29108,2.29102 l 5.74215,0 c 0.10112,0 0.19748,-0.0167 0.29494,-0.0293 1.22242,5.74543 5.7742,10.29716 11.51952,11.51953 -0.0129,0.0969 -0.0297,0.19259 -0.0297,0.29297 l 0,5.74413 c 0,1.26887 1.02226,2.29102 2.29108,2.29102 l 1.65628,0 c 1.26882,0 2.289,-1.02215 2.289,-2.29102 l 0,-5.74413 c 0,-0.10042 -0.0168,-0.19604 -0.0297,-0.29297 5.7459,-1.22179 10.29739,-5.77349 11.51951,-11.51953 0.098,0.0126 0.19393,0.0293 0.29495,0.0293 l 5.74412,0 c 1.26882,0 2.289,-1.02216 2.289,-2.29102 l 0,-1.65625 c 0,-1.26886 -1.02018,-2.29102 -2.289,-2.29102 l -5.74412,0 c -0.10102,0 -0.19749,0.0166 -0.29495,0.0294 -1.22212,-5.74606 -5.77361,-10.29774 -11.51951,-11.51953 0.0129,-0.097 0.0297,-0.19257 0.0297,-0.29298 l 0,-5.74413 c 0,-1.26887 -1.02018,-2.29102 -2.289,-2.29102 l -1.65628,0 z m 0.82814,14.23828 c 4.84168,0 8.6992,3.8575 8.6992,8.69922 0,4.84171 -3.85752,8.69921 -8.6992,8.69921 -4.84178,0 -8.70118,-3.8575 -8.70118,-8.69921 0,-4.84172 3.8594,-8.69922 8.70118,-8.69922 z"
     style="color:#000000;font-style:normal;font-variant:normal;font-weight:normal;font-stretch:normal;font-size:medium;line-height:normal;font-family:sans-serif;text-indent:0;text-align:start;text-decoration:none;text-decoration-line:none;text-decoration-style:solid;text-decoration-color:#000000;letter-spacing:normal;word-spacing:normal;text-transform:none;direction:ltr;block-progression:tb;writing-mode:lr-tb;baseline-shift:baseline;text-anchor:start;white-space:normal;clip-rule:nonzero;display:inline;overflow:visible;visibility:visible;opacity:1;isolation:auto;mix-blend-mode:normal;color-interpolation:sRGB;color-interpolation-filters:linearRGB;solid-color:#000000;solid-opacity:1;fill:#009ffd;fill-opacity:1;fill-rule:nonzero;stroke:none;stroke-width:6.23699999;stroke-linecap:round;stroke-linejoin:miter;stroke-miterlimit:4;stroke-dasharray:none;stroke-dashoffset:0;stroke-opacity:1;color-rendering:auto;image-rendering:auto;shape-rendering:auto;text-rendering:auto;enable-background:accumulate" />
</svg>
