<?xml version="1.0" encoding="UTF-8" standalone="no"?>
<svg
   xmlns:dc="http://purl.org/dc/elements/1.1/"
   xmlns:cc="http://creativecommons.org/ns#"
   xmlns:rdf="http://www.w3.org/1999/02/22-rdf-syntax-ns#"
   xmlns:svg="http://www.w3.org/2000/svg"
   xmlns="http://www.w3.org/2000/svg"
   version="1.1"
   id="svg3290"
   viewBox="0 0 30 34.000001"
   width="30"
   height="34">
  <defs
     id="defs3296" />
  <metadata
     id="metadata3292">
    <rdf:RDF>
      <cc:Work
         rdf:about="">
        <dc:format>image/svg+xml</dc:format>
        <dc:type
           rdf:resource="http://purl.org/dc/dcmitype/StillImage" />
        <dc:title></dc:title>
      </cc:Work>
    </rdf:RDF>
  </metadata>
  <path
     style="clip-rule:evenodd;fill:#6bffb8;fill-opacity:1;fill-rule:evenodd"
     id="path3"
     d="m 17.457707,15.292753 8.167285,-6.0844181 c 0.941953,-0.94219 0.941953,-1.891314 0,-2.833341 L 17.457707,0.29041309 C 17.20245,0.10649709 16.883964,8.5000002e-8 16.543739,8.5000002e-8 15.686768,8.5000002e-8 14.999822,0.66549409 14.999822,1.4877731 l 0,2.762165 C 6.7834151,4.2714191 0.12487935,10.92244 0.12487935,19.125132 0.12487935,27.342155 6.8041641,34 15.035229,34 c 7.642754,0 13.940554,-5.730149 14.811252,-13.111026 0.0076,-0.02148 0.02864,-0.248475 0.02864,-0.347334 0,-0.779011 -0.637823,-1.416508 -1.423692,-1.416508 l -3.570176,0 c -1.168911,0 -2.054255,0.807308 -2.17463,1.480212 -0.686947,3.598474 -3.860678,6.311453 -7.671366,6.311453 -4.313642,0 -7.8062469,-3.485045 -7.8062469,-7.791665 0,-4.29298 3.4711649,-7.770387 7.7709279,-7.791753 l 0,2.762792 c 0,0.821816 0.686933,1.487234 1.543905,1.487234 0.34015,0 0.658635,-0.106007 0.913892,-0.290652 z" />
</svg>
